<?xml version="1.0" encoding="utf-8" ?><svg xmlns="http://www.w3.org/2000/svg" xmlns:xlink="http://www.w3.org/1999/xlink" width="9403" height="4581" viewBox="0 0 9403 4581"><path fill="#6459BC" transform="scale(24.1103 24.1105)" d="M189.664 54.6107L191.576 54.5799L213.787 54.5395C231.97 54.4749 241.834 54.4301 256.218 67.8269C275.647 85.9228 275.387 117.243 257.063 136.046C247.269 146.097 236.328 149.651 222.377 149.741C211.115 149.803 202.727 145.43 204.498 162.158C205.515 171.753 203.662 182.301 192.069 183.559C188.096 184.013 184.109 182.839 181.017 180.303C178.773 178.495 176.03 175.188 175.893 172.257C175.57 165.363 175.647 158.039 175.666 151.143L175.659 115.447L175.601 83.3385C175.589 77.2655 175.427 70.8212 175.926 64.785C176.036 63.4533 177.395 60.8019 178.338 59.7733C182.31 55.44 184.417 55.1286 189.664 54.6107ZM224.881 121.821C235.674 120.929 243.7 111.456 242.806 100.663C241.912 89.8695 232.436 81.8461 221.643 82.7436C210.854 83.6407 202.835 93.1121 203.729 103.901C204.623 114.689 214.092 122.711 224.881 121.821Z"/><path fill="#6459BC" transform="scale(24.1103 24.1105)" d="M42.1926 14.3327C50.0542 13.3581 57.5236 17.5429 59.0317 25.3848C60.0103 30.4733 59.4975 38.8282 59.5023 44.2258L59.5181 72.458C59.5025 75.6604 58.9632 80.841 60.0109 83.7574C60.2448 84.4084 60.6952 84.8569 61.3271 85.1289C62.2804 85.5394 63.0956 85.2251 63.9484 84.7263C66.4846 83.2427 68.7448 80.5984 70.8593 78.5458C75.5583 73.9844 91.9027 57.0279 96.3734 55.2588C100.42 53.6576 107.45 53.1961 111.521 55.0033C114.659 56.3966 117.306 59.3922 118.516 62.5841C121.953 71.6503 113.372 78.0354 107.552 83.368C104.187 86.4507 100.884 89.6013 97.4878 92.649C95.3829 94.5381 92.559 96.6297 91.4113 99.2809C90.9232 100.409 90.917 101.206 91.4384 102.333C92.7265 105.119 95.4841 107.412 97.676 109.495C100.79 112.471 103.934 115.414 107.108 118.324C110.995 121.867 117.21 127.004 119.1 131.937C119.156 132.126 119.208 132.317 119.255 132.508C121.206 140.297 116.204 147.209 108.305 149.312C93.3217 153.3 83.6541 135.039 73.2397 127.198C68.6331 123.73 64.6 116.723 59.5662 125.326C59.115 131.632 60.6239 139.561 56.7353 144.643C54.2957 147.832 50.9469 149.45 47.0336 150.012C42.9457 150.592 38.7964 149.501 35.5229 146.984C33.158 145.196 30.4094 141.872 30.1022 138.885C29.4849 132.883 29.7342 126.295 29.7382 120.21L29.7573 87.1813L29.7649 48.7937C29.7677 41.9606 29.64 35.1317 29.9923 28.309C30.359 21.2098 34.9779 15.3136 42.1926 14.3327Z"/><path fill="#6459BC" transform="scale(24.1103 24.1105)" d="M321.464 54.313C347.805 51.2182 371.665 70.0699 374.749 96.4127C377.832 122.756 358.97 146.608 332.625 149.679C306.298 152.749 282.464 133.901 279.383 107.574C276.301 81.248 295.139 57.406 321.464 54.313ZM327.872 122.107C338.983 121.541 347.519 112.055 346.912 100.946C346.306 89.8371 336.789 81.3354 325.682 81.9816C314.632 82.6246 306.183 92.083 306.786 103.135C307.389 114.187 316.817 122.671 327.872 122.107Z"/><path fill="#6459BC" transform="scale(24.1103 24.1105)" d="M145.667 54.3319C152.221 53.6487 160.13 57.2333 161.502 64.4797C162.228 68.3116 161.861 74.2547 161.868 78.3124L161.879 102.463L161.999 126.294C162 130.137 162.091 134.011 161.842 137.842C161.4 144.626 155.716 149.093 149.307 149.965C145.014 150.201 141.977 149.699 138.404 147.23C131.965 142.779 132.84 134.962 132.837 128.331L132.951 108.18C132.882 98.3686 132.92 88.5571 133.063 78.7469C133.113 74.5433 132.961 70.4601 133.297 66.2545C133.849 59.3362 139.053 55.2708 145.667 54.3319Z"/><path fill="#6459BC" transform="scale(24.1103 24.1105)" d="M144.28 11.5431C153.711 9.898 162.688 16.2146 164.324 25.6469C165.961 35.0793 159.636 44.0507 150.202 45.6785C140.78 47.3042 131.823 40.9894 130.189 31.5693C128.555 22.1492 134.861 13.1861 144.28 11.5431Z"/></svg>