<?xml version="1.0" encoding="utf-8" ?><svg xmlns="http://www.w3.org/2000/svg" xmlns:xlink="http://www.w3.org/1999/xlink" width="2751" height="2815" viewBox="0 0 2751 2815"><path fill="#635BBE" transform="matrix(15.9942 0 0 15.9943 -6.10352e-05 0.000976562)" d="M141.389 1.34127C141.972 1.22029 142.861 1.26245 143.494 1.23945C163.059 0.117704 176.762 20.6787 168.579 38.1153C165.267 45.1707 152.327 56.1038 146.342 61.7254C141.557 66.1682 136.865 70.709 132.267 75.345C118.156 89.482 120.908 90.3661 134.255 103.317L148.82 117.488C154.805 123.222 161.731 129.179 166.667 135.826C170.927 141.563 171.459 150.332 169.317 157.099C167.334 163.547 162.856 168.935 156.88 172.064C150.246 175.426 142.549 176.017 135.48 173.706C128.26 171.536 119.935 162.245 114.535 156.902L95.4323 138.146L74.2805 117.471C67.0981 110.413 58.1648 103.466 56.7297 92.8286C54.298 74.8042 63.4353 68.5832 74.6815 57.5561L99.9044 32.9688L116.165 17.0588C124.648 8.72965 128.91 3.007 141.389 1.34127Z"/><defs><linearGradient id="gradient_0" gradientUnits="userSpaceOnUse" x1="76.740417" y1="-1.0912827" x2="27.487146" y2="172.25465"><stop offset="0" stop-color="#FAB845"/><stop offset="1" stop-color="#F4616F"/></linearGradient></defs><path fill="url(#gradient_0)" transform="matrix(15.9942 0 0 15.9943 -6.10352e-05 0.000976562)" d="M83.8572 1.61215C89.3146 1.50597 98.2009 3.73327 92.733 11.1956C91.253 13.2153 88.4929 15.5283 86.6241 17.3027L77.0109 26.4841C64.6867 38.4862 52.4227 50.55 40.2194 62.675C36.9039 65.9466 33.5607 69.1901 30.1902 72.405C25.5434 76.8652 21.0134 80.2735 20.5135 87.2738C20.0435 93.8546 24.8366 97.678 29.086 101.924C32.3983 105.234 35.7744 108.494 39.112 111.756L72.2874 144.488L84.0318 155.805C87.8074 159.398 97.0885 166.244 92.7938 171.989C91.177 174.151 87.7952 174.638 85.3371 174.872L54.5953 174.675C50.658 174.676 33.9783 175.39 31.292 173.637C26.4089 170.449 19.3064 163.262 14.9426 158.824C10.892 154.704 4.21865 149.701 1.82007 144.507C1.3778 143.362 1.68819 135.947 1.71093 134.428C1.7519 129.77 1.76778 125.111 1.75859 120.453L1.77982 64.498C1.76304 54.2859 1.70285 44.0722 1.78862 33.8606C1.48571 31.1484 3.64908 29.0645 5.29507 27.2888C13.0627 18.9089 21.7292 11.3655 30.1208 3.6224C30.9451 2.86177 32.3222 2.17039 33.4693 2.09899C50.1159 1.06289 67.2125 2.44082 83.8572 1.61215Z"/></svg>